HIERARCHY
ROOT Hips
{
	OFFSET 0.00000 0.00000 0.00000
	CHANNELS 6 Xposition Yposition Zposition Zrotation Yrotation Xrotation 
	JOINT LHipJoint
	{
		OFFSET 0 0 0
		CHANNELS 3 Zrotation Yrotation Xrotation
		JOINT LeftHip
		{
			OFFSET 1.65412 -1.54119 0.76744
			CHANNELS 3 Zrotation Yrotation Xrotation
			JOINT LeftKnee
			{
				OFFSET 2.19550 -6.03209 0.00000
				CHANNELS 3 Zrotation Yrotation Xrotation
				JOINT LeftAnkle
				{
					OFFSET 2.38814 -6.56138 0.00000
					CHANNELS 3 Zrotation Yrotation Xrotation
					JOINT LeftToe
					{
						OFFSET 0.17337 -0.47632 1.75875
						CHANNELS 3 Zrotation Yrotation Xrotation
						End Site
						{
							OFFSET 0.00000 -0.00000 0.92050
						}
					}
				}
			}
		}
	}
	JOINT RHipJoint
	{
		OFFSET 0 0 0
		CHANNELS 3 Zrotation Yrotation Xrotation
		JOINT RightHip
		{
			OFFSET -1.40291 -1.54119 0.76744
			CHANNELS 3 Zrotation Yrotation Xrotation
			JOINT RightKnee
			{
				OFFSET -2.22156 -6.10370 0.00000
				CHANNELS 3 Zrotation Yrotation Xrotation
				JOINT RightAnkle
				{
					OFFSET -2.46840 -6.78188 0.00000
					CHANNELS 3 Zrotation Yrotation Xrotation
					JOINT RightToe
					{
						OFFSET -0.15659 -0.43024 1.84117
						CHANNELS 3 Zrotation Yrotation Xrotation
						End Site
						{
							OFFSET -0.00000 -0.00000 0.95587
						}
					}
				}
			}
		}
	}
	JOINT lowerback
	{
		OFFSET 0 0 0
		CHANNELS 3 Zrotation Yrotation Xrotation
		JOINT Chest
		{
			OFFSET -0.01936 1.82120 -0.32061
			CHANNELS 3 Zrotation Yrotation Xrotation
			JOINT Chest2
			{
				OFFSET -0.00532 1.85767 -0.00071
				CHANNELS 3 Zrotation Yrotation Xrotation
				JOINT lowerneck
				{
					OFFSET 0 0 0
					CHANNELS 3 Zrotation Yrotation Xrotation
					JOINT Neck
					{
						OFFSET -0.10687 1.58194 0.10810
						CHANNELS 3 Zrotation Yrotation Xrotation
						JOINT Head
						{
							OFFSET 0.15346 1.57382 -0.25612
							CHANNELS 3 Zrotation Yrotation Xrotation
							End Site
							{
								OFFSET 0.05334 1.61251 -0.10513
							}
						}
					}
				}
				JOINT LeftCollar
				{
					OFFSET 0 0 0
					CHANNELS 3 Zrotation Yrotation Xrotation
					JOINT LeftShoulder
					{
						OFFSET 2.85758 0.89498 -0.01485
CHANNELS 3 Zrotation Xrotation Yrotation
						JOINT LeftElbow
						{
OFFSET 0 -4.791850 -0.000000
CHANNELS 3 Zrotation Xrotation Yrotation
							JOINT LeftWrist
							{
OFFSET 0 -2.655530 0.000000
CHANNELS 3 Zrotation Xrotation Yrotation
								JOINT lhand
								{
									OFFSET 0 0 0
CHANNELS 3 Zrotation Xrotation Yrotation
									JOINT LFingers
									{
OFFSET 0 -0.743900 0.000000
CHANNELS 3 Zrotation Xrotation Yrotation
										End Site
										{
OFFSET 0 -0.599750 0.000000
										}
									}
								}
								JOINT LThumb
								{
OFFSET 0 0.000000 0.000000
CHANNELS 3 Zrotation Xrotation Yrotation
									End Site
									{
OFFSET 0 -0.608910 0.608910
									}
								}
							}
						}
					}
				}
				JOINT RightCollar
				{
					OFFSET 0 0 0
					CHANNELS 3 Zrotation Yrotation Xrotation
					JOINT RightShoulder
					{
						OFFSET -2.93906 0.88031 0.02490
CHANNELS 3 Zrotation Xrotation Yrotation
						JOINT RightElbow
						{
OFFSET 0 -4.772540 -0.000000
CHANNELS 3 Zrotation Xrotation Yrotation
							JOINT RightWrist
							{
OFFSET 0 -2.759950 -0.000000
CHANNELS 3 Zrotation Xrotation Yrotation
								JOINT rhand
								{
									OFFSET 0 0 0
CHANNELS 3 Zrotation Xrotation Yrotation
									JOINT RFingers
									{
OFFSET 0 -0.701620 0.000000
CHANNELS 3 Zrotation Xrotation Yrotation
										End Site
										{
OFFSET 0 -0.565660 0.000000
										}
									}
								}
								JOINT RThumb
								{
OFFSET 0 0.000000 0.000000
CHANNELS 3 Zrotation Xrotation Yrotation
									End Site
									{
OFFSET 0 -0.574300 0.574300
									}
								}
							}
						}
					}
				}
			}
		}
	}
}
MOTION
Frames: 10
Frame Time: 0.008333333333333333
2.562081 14.654516 -0.422782 8.777261 -37.980596 11.857118 0.000000 0.000000 0.000000 -34.135609 1.143017 -45.683068 8.446098 16.437546 54.153729 2.524138 3.735928 -31.522049 0.181924 -2.747429 -7.576329 0.000000 0.000000 0.000000 -19.556805 37.562696 -52.473523 -7.789629 -15.962253 51.801307 -0.786465 7.255191 -15.873112 -2.236292 9.341786 -26.870550 5.727562 -5.360637 30.313574 7.010670 -4.485872 5.515300 5.995122 -2.314611 -9.534513 -17.736246 -11.970988 -1.846281 5.317428 -15.715876 12.339720 3.298760 -8.183536 5.884743 0.000000 0.000000 0.000000 109.882297 -84.771147 54.759410 11.888693 -19.637539 2.064749 -0.886334 -20.156911 -11.335414 0.000000 0.000000 0.000000 -7.125000 0.000000 0.000000 -24.267736 40.041608 -3.184833 0.000000 0.000000 0.000000 -81.636039 -39.110193 -75.037786 -10.324205 -17.245119 -1.569718 -11.473073 -6.778659 -14.752550 0.000000 0.000000 0.000000 7.125000 0.000000 0.000000 10.880360 15.122049 7.809523
2.459795 14.560823 -0.614717 7.855801 -37.046135 13.352644 0.000000 0.000000 0.000000 -32.278204 0.308506 -48.433739 9.240932 16.960069 56.919350 2.530882 3.153841 -31.313177 0.226628 -3.064015 -8.457039 0.000000 0.000000 0.000000 -19.386943 37.355910 -55.189876 -8.316068 -16.346825 53.693180 -0.772431 7.102621 -15.721816 -1.981657 8.825313 -25.252092 5.075744 -5.196055 31.557430 6.175465 -4.446229 5.668911 5.507458 -2.271061 -9.897368 -17.197214 -11.025677 -2.967973 4.899171 -14.209812 12.529653 3.196258 -7.440476 5.886542 0.000000 0.000000 0.000000 27.934943 -83.302445 -24.076314 11.207665 -18.604994 1.842332 -1.198642 -17.494550 -11.131452 0.000000 0.000000 0.000000 -7.125000 0.000000 0.000000 -24.452972 39.828096 -3.352059 0.000000 0.000000 0.000000 -72.358570 -39.397200 -69.047096 -9.739612 -16.331011 -1.401101 -12.321747 -2.162769 -15.666782 0.000000 0.000000 0.000000 7.125000 0.000000 0.000000 10.301014 14.143447 7.597460
2.335519 14.458246 -0.812909 7.217588 -35.307346 14.594863 0.000000 0.000000 0.000000 -30.369954 -1.023671 -50.763008 9.985133 17.401390 59.438660 2.504289 2.674404 -30.958429 0.275637 -3.376595 -9.329013 0.000000 0.000000 0.000000 -18.838456 36.408414 -57.512889 -8.926526 -16.760102 55.835406 -0.852179 6.693247 -16.475342 -2.223467 9.316637 -26.791002 4.724827 -4.588009 32.061357 5.171489 -3.889561 6.249170 4.406471 -2.004815 -9.522464 -16.130508 -10.682804 -4.218701 5.099739 -13.611857 12.199293 3.116772 -7.061073 5.857220 0.000000 0.000000 0.000000 4.633646 -77.379053 -45.810135 10.737547 -17.884771 1.694429 0.759282 -15.655016 -12.022815 0.000000 0.000000 0.000000 -7.125000 0.000000 0.000000 -23.147303 40.819915 -2.541397 0.000000 0.000000 0.000000 -62.910417 -36.171044 -60.760520 -9.945142 -16.653766 -1.459218 -12.323071 -2.071959 -15.965570 0.000000 0.000000 0.000000 7.125000 0.000000 0.000000 10.298584 13.844074 7.662473
2.184531 14.360912 -1.007733 6.615745 -33.064586 15.927347 0.000000 0.000000 0.000000 -28.420956 -2.337965 -53.111803 10.711125 17.790658 61.839700 2.413823 2.322027 -30.272943 0.433062 -4.221322 -11.700361 0.000000 0.000000 0.000000 -18.087048 35.150518 -59.799823 -9.594222 -17.175153 58.123140 -0.896358 6.316019 -16.885124 -2.196885 9.263723 -26.624604 3.924211 -4.018819 32.690365 4.342013 -3.466429 6.398039 3.814773 -1.780322 -9.636570 -15.372962 -10.394310 -5.822490 5.063063 -13.025037 12.630576 2.971039 -6.724468 6.143885 0.000000 0.000000 0.000000 1.054560 -70.254119 -45.285411 9.907627 -16.594868 1.448447 -2.504244 -12.427228 -10.824527 0.000000 0.000000 0.000000 -7.125000 0.000000 0.000000 -25.405960 39.435091 -3.772094 0.000000 0.000000 0.000000 -54.671520 -33.259478 -53.867782 -9.876131 -16.545638 -1.439492 -12.826339 -1.489658 -15.940765 0.000000 0.000000 0.000000 7.125000 0.000000 0.000000 9.962681 13.827574 7.407977
2.001857 14.233388 -1.206762 5.207732 -30.491286 17.534759 0.000000 0.000000 0.000000 -25.409906 -3.364717 -55.889924 11.569630 18.202696 64.618018 2.364664 1.013897 -29.481949 0.502796 -4.545604 -12.617044 0.000000 0.000000 0.000000 -16.570014 34.400871 -62.020501 -10.318324 -17.585003 60.547014 -0.922182 5.501826 -17.137271 -2.057604 8.984533 -25.747229 3.336218 -3.226322 33.069614 3.760869 -2.705666 6.635358 3.230050 -1.410716 -9.554560 -14.276122 -10.053173 -6.450087 5.016933 -12.542122 11.371854 2.847744 -6.415771 5.720907 0.000000 0.000000 0.000000 2.563838 -63.717658 -42.244264 9.561664 -16.050990 1.351182 -2.849375 -10.802596 -10.467471 0.000000 0.000000 0.000000 -7.125000 0.000000 0.000000 -25.560531 39.082431 -4.041539 0.000000 0.000000 0.000000 -47.120708 -29.925073 -47.747006 -9.987591 -16.720185 -1.471342 -13.168098 -0.365795 -16.225858 0.000000 0.000000 0.000000 7.125000 0.000000 0.000000 9.735121 13.511991 7.299451
1.797471 14.123859 -1.375333 4.149938 -27.303112 18.817196 0.000000 0.000000 0.000000 -22.505031 -4.775946 -58.158280 12.317835 18.521806 66.992586 2.287346 -0.092754 -28.628203 0.571115 -4.839746 -13.452162 0.000000 0.000000 0.000000 -14.623242 32.971815 -63.648434 -11.018490 -17.944107 62.841715 -1.002056 4.601580 -17.939936 -2.135829 9.143458 -26.245025 2.828148 -2.808893 33.075867 2.839229 -2.435084 6.745206 2.414081 -1.262555 -9.462376 -14.001298 -9.420430 -6.712016 6.403029 -11.818397 10.313916 3.324270 -5.956524 5.426137 0.000000 0.000000 0.000000 6.244319 -56.749942 -37.994770 9.686907 -16.248383 1.386090 -1.566202 -10.297199 -9.731806 0.000000 0.000000 0.000000 -7.125000 0.000000 0.000000 -24.284622 38.521175 -4.171590 0.000000 0.000000 0.000000 -40.293050 -26.966498 -42.641489 -9.733510 -16.321672 -1.399134 -12.820729 2.191312 -17.172798 0.000000 0.000000 0.000000 7.125000 0.000000 0.000000 9.970394 12.590765 7.677060
1.581285 14.057372 -1.530956 2.845248 -24.092258 20.007726 0.000000 0.000000 0.000000 -19.306905 -5.901881 -60.005051 12.817460 18.715229 68.557498 2.145476 -1.435572 -27.323591 0.556947 -4.780514 -13.283630 0.000000 0.000000 0.000000 -12.335019 32.056035 -64.723412 -11.564916 -18.200611 64.602950 -0.998890 3.611367 -18.024826 -1.737926 8.297247 -23.620716 2.185616 -2.136928 33.249391 2.268720 -1.845716 6.787035 1.934459 -0.967789 -9.499303 -13.345076 -9.082269 -7.611844 6.700495 -11.337797 9.884653 3.337745 -5.661342 5.369662 0.000000 0.000000 0.000000 10.028226 -51.070360 -32.751064 9.582750 -16.084164 1.357043 -0.922285 -9.918900 -9.701846 0.000000 0.000000 0.000000 -7.125000 0.000000 0.000000 -23.756752 38.545709 -4.051699 0.000000 0.000000 0.000000 -34.538196 -23.696471 -37.192569 -9.905144 -16.590991 -1.447716 -12.976909 1.978795 -17.796491 0.000000 0.000000 0.000000 7.125000 0.000000 0.000000 9.873304 11.950266 7.733496
1.340012 13.942522 -1.661290 1.663087 -20.367317 20.638572 0.000000 0.000000 0.000000 -15.901203 -7.328286 -61.585921 13.447940 18.937947 70.511019 2.037601 -2.682570 -26.302700 0.637527 -5.108361 -14.217999 0.000000 0.000000 0.000000 -9.397439 30.588371 -65.474321 -12.272021 -18.503281 66.848418 -1.125922 2.410067 -19.399524 -1.969306 8.800808 -25.174719 1.356695 -1.533023 33.698872 1.848066 -1.379858 6.783523 1.765178 -0.725520 -9.682491 -12.692508 -8.674030 -8.523804 6.934267 -10.779926 9.816646 3.335160 -5.335339 5.419551 0.000000 0.000000 0.000000 13.694201 -45.495632 -28.441881 10.125166 -16.935058 1.511294 -0.972677 -11.109157 -9.711517 0.000000 0.000000 0.000000 -7.125000 0.000000 0.000000 -23.800443 38.550469 -4.057291 0.000000 0.000000 0.000000 -29.703087 -20.624524 -32.275409 -9.841244 -16.490810 -1.429575 -13.675551 1.891191 -17.133748 0.000000 0.000000 0.000000 7.125000 0.000000 0.000000 9.405678 12.551914 7.237272
1.107870 13.860663 -1.762243 0.689789 -16.391455 21.261666 0.000000 0.000000 0.000000 -12.625002 -9.195606 -63.003704 13.873842 19.075327 71.818785 1.901535 -3.638239 -25.184103 0.700304 -5.349122 -14.907128 0.000000 0.000000 0.000000 -6.750353 28.951543 -66.069873 -12.825813 -18.718304 68.583563 -1.210497 1.540360 -20.347999 -1.755116 8.336216 -23.740154 0.477009 -1.113226 33.955001 1.678860 -1.137038 6.603237 1.969849 -0.581209 -9.979201 -12.727224 -8.251766 -9.168084 7.586319 -10.191506 9.357781 3.587756 -4.998128 5.361514 0.000000 0.000000 0.000000 16.719966 -40.212960 -24.490021 10.368397 -17.313720 1.582816 -0.764479 -11.574708 -10.089960 0.000000 0.000000 0.000000 -7.125000 0.000000 0.000000 -23.754766 38.913695 -3.817623 0.000000 0.000000 0.000000 -25.893715 -18.226193 -28.970699 -9.804522 -16.433181 -1.419142 -14.226208 0.843974 -17.165687 0.000000 0.000000 0.000000 7.125000 0.000000 0.000000 9.042188 12.467751 6.966324
0.881599 13.794115 -1.818165 -0.284535 -12.761024 21.754923 0.000000 0.000000 0.000000 -9.574194 -10.495224 -64.236583 14.214202 19.177698 72.857620 1.787154 -5.191255 -24.150265 0.721288 -5.426975 -15.130562 0.000000 0.000000 0.000000 -3.814715 27.044774 -66.492562 -13.313492 -18.892391 70.096291 -1.269856 0.872949 -21.040715 -1.741477 8.305383 -23.645616 -0.222468 -0.223338 33.946490 1.506672 -0.261983 6.492898 1.827013 -0.153769 -10.121311 -12.422334 -8.112605 -9.258873 8.307019 -10.074257 8.175345 3.789471 -4.886700 5.019641 0.000000 0.000000 0.000000 18.996483 -36.109550 -23.319248 10.244931 -17.121775 1.546314 -0.086018 -12.310248 -9.262106 0.000000 0.000000 0.000000 -7.125000 0.000000 0.000000 -22.944902 38.208014 -4.098497 0.000000 0.000000 0.000000 -22.845536 -15.030292 -25.915056 -9.937513 -16.641734 -1.456995 -13.492724 1.218351 -17.643086 0.000000 0.000000 0.000000 7.125000 0.000000 0.000000 9.532694 12.055907 7.437553
